Coordinates
version=1
nRows=29
nColumns=24
inDegrees=yes

Units are S.I. units (second, meters, Newtons, ...)
Angles are in degrees.

endheader
time	pelvis_tilt	pelvis_list	pelvis_rotation	pelvis_tx	pelvis_ty	pelvis_tz	hip_flexion_r	hip_adduction_r	hip_rotation_r	knee_angle_r	ankle_angle_r	subtalar_angle_r	mtp_angle_r	hip_flexion_l	hip_adduction_l	hip_rotation_l	knee_angle_l	ankle_angle_l	subtalar_angle_l	mtp_angle_l	lumbar_extension	lumbar_bending	lumbar_rotation
      0.69983333	     -2.66478220	      1.84528414	      1.42073191	     -0.41173854	      1.00168743	      0.28419647	     11.24998950	      1.59484974	      2.22446564	    -23.56910342	     16.90363170	     -4.69175603	     -4.11229433	     16.03809008	      0.36677701	     -1.93788615	    -67.63394799	    -10.37401966	     -0.30715437	      4.90646977	    -11.31473304	      4.55824388	     -1.12093613
      0.70400000	     -2.62976103	      1.96131678	      1.36428652	     -0.40691974	      1.00264041	      0.28433261	     10.74284778	      1.49364088	      2.28670979	    -23.19813150	     16.79757476	     -4.79256843	     -4.12377056	     16.42636162	      0.46070942	     -1.99030632	    -67.45101781	     -9.58035879	     -0.74624476	      4.88111563	    -11.42757936	      4.30116728	     -0.63860878
      0.70816667	     -2.62355875	      2.07218495	      1.30512517	     -0.40209248	      1.00353913	      0.28444959	     10.27333876	      1.39185402	      2.33371923	    -22.83960479	     16.68780574	     -4.85708261	     -4.13013244	     16.83669522	      0.54916779	     -2.04983500	    -67.21811676	     -8.74236692	     -1.14701077	      4.85035022	    -11.48000855	      4.09193693	     -0.32705855
      0.71233333	     -2.64914772	      2.19940331	      1.24517517	     -0.39726701	      1.00439523	      0.28452779	      9.85228985	      1.26171912	      2.35222897	    -22.51044642	     16.58000333	     -4.85338424	     -4.13275536	     17.27020482	      0.66105352	     -2.11604837	    -66.92493128	     -7.89613348	     -1.56257657	      4.84621952	    -11.47475299	      3.90956019	     -0.20832868
      0.71650000	     -2.60609143	      2.33298391	      1.16064961	     -0.39242849	      1.00538359	      0.28466386	      9.33384118	      1.13655300	      2.43324830	    -22.12483602	     16.43759210	     -4.94056782	     -4.13041220	     17.60528090	      0.77074623	     -2.20257690	    -66.54897703	     -7.06649933	     -1.94707552	      4.79051592	    -11.58761884	      3.63422328	      0.26408619
      0.72066667	     -2.60446464	      2.44993062	      1.08098185	     -0.38758779	      1.00630251	      0.28476940	      8.86823358	      1.02186834	      2.49405677	    -21.75516093	     16.28311689	     -4.99023917	     -4.12231457	     17.97911885	      0.86306491	     -2.28906783	    -66.13027223	     -6.21963747	     -2.30764810	      4.72347443	    -11.63166651	      3.42115141	      0.57300575
      0.72483333	     -2.62645887	      2.57649801	      1.00191775	     -0.38277317	      1.00716470	      0.28482819	      8.45104925	      0.88518283	      2.51678877	    -21.42991697	     16.12829189	     -4.96751425	     -4.11961477	     18.37194745	      0.97369523	     -2.37650721	    -65.66209582	     -5.37495387	     -2.69403719	      4.70149187	    -11.63752514	      3.23610351	      0.69648754
      0.72900000	     -2.56415456	      2.71382358	      0.91050572	     -0.37790818	      1.00817340	      0.28492238	      7.91090482	      0.74425299	      2.59208416	    -21.03861721	     15.96679822	     -5.02473906	     -4.10352732	     18.64331621	      1.09039982	     -2.47110895	    -65.10527126	     -4.57455407	     -3.02176434	      4.61199353	    -11.76154999	      2.97290419	      1.12106695
      0.73316667	     -2.53898720	      2.83992173	      0.81531879	     -0.37305353	      1.00911830	      0.28499366	      7.42642189	      0.60821670	      2.64577612	    -20.67450921	     15.77742274	     -5.04553502	     -4.08008311	     18.94739211	      1.19357453	     -2.57535526	    -64.50456923	     -3.77561807	     -3.35405584	      4.50049709	    -11.82732648	      2.76204276	      1.42712061
      0.73733333	     -2.51342727	      2.97601368	      0.71873320	     -0.36820685	      1.01004753	      0.28504483	      6.94729362	      0.45663260	      2.69659336	    -20.31891108	     15.59584054	     -5.03756712	     -4.04911581	     19.23710211	      1.31545540	     -2.67166138	    -63.84501260	     -3.00582227	     -3.68384722	      4.36605630	    -11.89695094	      2.53120166	      1.70604215
      0.74150000	     -2.48257390	      3.09116818	      0.62930504	     -0.36334276	      1.01097242	      0.28508546	      6.45592097	      0.32556199	      2.74453897	    -19.94974472	     15.39418878	     -5.03433251	     -4.01055059	     19.51030173	      1.41386258	     -2.76247988	    -63.13879809	     -2.26104632	     -3.99646088	      4.20659446	    -11.97133644	      2.32143475	      1.98022103
      0.74566667	     -2.47213811	      3.22773255	      0.53530552	     -0.35848104	      1.01185889	      0.28508449	      6.00365635	      0.16405234	      2.77975750	    -19.61560283	     15.19286072	     -5.02374708	     -3.96894571	     19.78668065	      1.54662485	     -2.84892872	    -62.36505842	     -1.55805189	     -4.30734867	      4.04181199	    -12.01196698	      2.11728060	      2.23424576
      0.74983333	     -2.44807753	      3.31785547	      0.41989160	     -0.35362500	      1.01271970	      0.28513737	      5.53250643	      0.05789921	      2.85453198	    -19.26287676	     14.98349011	     -4.98710653	     -3.81118179	     20.04332280	      1.60856737	     -2.96780920	    -61.56867867	     -0.85135665	     -4.61833609	      3.47656834	    -12.08078270	      1.92790261	      2.61835886
      0.75400000	     -2.44607952	      3.47916029	      0.35385663	     -0.34876506	      1.01356751	      0.28504692	      5.10431479	     -0.14370467	      2.83784176	    -18.96314527	     14.77012515	     -4.95081211	     -3.78830456	     20.29907310	      1.79610573	     -3.00433246	    -60.67979307	     -0.21961201	     -4.89263793	      3.38973459	    -12.10169878	      1.72465708	      2.67572546
      0.75816667	     -2.38918826	      3.59061999	      0.26772737	     -0.34388993	      1.01446047	      0.28501585	      4.58819938	     -0.28329458	      2.88220412	    -18.59134813	     14.54199995	     -4.95610669	     -2.72193024	     20.48574123	      1.91351674	     -3.06451421	    -59.76479611	      0.42545594	     -5.16676394	      0.03246828	    -12.20737017	      1.51475376	      2.97368270
      0.76233333	     -2.35362943	      3.73804764	      0.18816382	     -0.33899735	      1.01531439	      0.28493413	      4.11712891	     -0.47259573	      2.87924386	    -18.27342461	     14.34924729	     -4.87411469	     -2.70778885	     20.67067172	      2.07893110	     -3.11881753	    -58.77035893	      0.96415734	     -5.44209122	      0.02100480	    -12.27040417	      1.29762904	      3.14258738
      0.76650000	     -2.31349106	      3.84642528	      0.11127971	     -0.33411723	      1.01612766	      0.28484736	      3.63900782	     -0.61730627	      2.89027083	    -17.94682077	     14.13072460	     -4.82291991	     -2.68705870	     20.84495034	      2.20586433	     -3.15551220	    -57.74925548	      1.47111065	     -5.72945172	     -0.01218001	    -12.34381235	      1.12359900	      3.35794585
      0.77066667	     -2.28360704	      3.97347092	      0.02964199	     -0.32922718	      1.01691815	      0.28473904	      3.17994517	     -0.78570154	      2.90497870	    -17.63628381	     13.91655313	     -4.76942733	     -2.65940961	     21.00760095	      2.35919364	     -3.19057481	    -56.66426736	      1.92791267	     -6.01672631	     -0.06520735	    -12.40601195	      0.92985381	      3.56753758
      0.77483333	     -2.28630382	      4.08790865	     -0.04720975	     -0.32435213	      1.01761819	      0.28461014	      2.77561892	     -0.94191916	      2.91005745	    -17.36620193	     13.67115674	     -4.71718365	     -2.63814335	     21.19532400	      2.50561346	     -3.20675133	    -55.54458732	      2.37505005	     -6.27620103	     -0.11197003	    -12.42055692	      0.77014360	      3.72305035
      0.77900000	     -2.20845349	      4.21128749	     -0.12064895	     -0.31943469	      1.01843164	      0.28447829	      2.25285014	     -1.10862440	      2.92477906	    -17.03061396	     13.47913092	     -4.66892133	     -2.59395607	     21.26924942	      2.66551979	     -3.21948158	    -54.35536823	      2.72272459	     -6.58520364	     -0.20711711	    -12.54204909	      0.56922627	      3.95691117
      0.78316667	     -2.21083004	      4.32272908	     -0.19222852	     -0.31454828	      1.01906284	      0.28432287	      1.85721702	     -1.26433433	      2.92406348	    -16.77906565	     13.23775029	     -4.62186724	     -2.55783572	     21.42234808	      2.81822801	     -3.21313353	    -53.14133860	      3.08816268	     -6.83409455	     -0.28782660	    -12.55579006	      0.40716065	      4.11514815
      0.78733333	     -2.15624955	      4.43758998	     -0.26034198	     -0.30962810	      1.01976052	      0.28416286	      1.37955488	     -1.42362955	      2.93279427	    -16.48702517	     13.04225380	     -4.57644106	     -2.50787371	     21.48948390	      2.97895311	     -3.19945342	    -51.86544369	      3.37965295	     -7.12098618	     -0.39743188	    -12.63572869	      0.22853520	      4.30197218
      0.79150000	     -2.13633229	      4.54632063	     -0.32619801	     -0.30470875	      1.02038252	      0.28397968	      0.94485615	     -1.57752195	      2.94588889	    -16.20340972	     12.83478162	     -4.54129942	     -2.44229029	     21.57929934	      3.13766625	     -3.17683171	    -50.55016308	      3.63778245	     -7.40761680	     -0.53787630	    -12.69059336	      0.06670134	      4.48956852
      0.79566667	     -2.12400304	      4.65304228	     -0.39206647	     -0.29980186	      1.02094939	      0.28379967	      0.54431277	     -1.72968896	      2.94064265	    -15.97373630	     12.57975146	     -4.50901875	     -2.39521297	     21.66020752	      3.29491953	     -3.14154600	    -49.19298520	      3.89852114	     -7.63203254	     -0.64223093	    -12.72261525	     -0.09355164	      4.61352952
      0.79983333	     -2.08155348	      4.75880918	     -0.45231881	     -0.29485413	      1.02153890	      0.28360167	      0.08549238	     -1.87977295	      2.95949118	    -15.69476441	     12.40982744	     -4.48190348	     -2.31512377	     21.68359300	      3.46056766	     -3.08969106	    -47.77758946	      4.06423301	     -7.94457600	     -0.80642954	    -12.79194200	     -0.25210440	      4.79394630
      0.80400000	     -2.05905024	      4.85877347	     -0.51050402	     -0.28992661	      1.02204453	      0.28340267	     -0.33083729	     -2.02462602	      2.96027341	    -15.45748613	     12.20534838	     -4.45173332	     -2.22498262	     21.71580392	      3.61766550	     -3.03235934	    -46.33176465	      4.23716192	     -8.20050534	     -0.98468712	    -12.84716328	     -0.40168081	      4.93997188
      0.80816667	     -2.06998098	      4.95982022	     -0.59046293	     -0.28499374	      1.02247343	      0.28321094	     -0.68543070	     -2.17308674	      2.97277712	    -15.26642123	     11.98985816	     -4.40539053	     -0.48741383	     21.76341674	      3.76948712	     -2.99336072	    -44.84730338	      4.43244821	     -8.41112913	     -3.95239140	    -12.85167234	     -0.56349179	      5.11149794
      0.81233333	     -2.04821547	      5.05151127	     -0.62433192	     -0.28003994	      1.02291514	      0.28297592	     -1.10384692	     -2.30546642	      2.96804958	    -15.03129541	     11.77731104	     -4.43641666	     -0.46615637	     21.75472298	      3.93290600	     -2.88381092	    -43.31095997	      4.55818242	     -8.63668850	     -3.96547739	    -12.88844802	     -0.69058283	      5.19154027
      0.81650000	     -2.05366335	      5.14390768	     -0.67561224	     -0.27509578	      1.02326958	      0.28276009	     -1.46834664	     -2.43963037	      2.97394133	    -14.84249107	     11.57646975	     -4.44454813	     -0.43944856	     21.75951361	      4.08334478	     -2.80307942	    -41.74166074	      4.64070362	     -8.84480687	     -3.98800241	    -12.91421489	     -0.82232410	      5.29392926
